<svg id="Layer_1" data-name="Layer 1" xmlns="http://www.w3.org/2000/svg" viewBox="0 0 110 110"><defs><style>.cls-1{fill:none;stroke:#282828;stroke-miterlimit:10;stroke-width:2px;}</style></defs><title>about-icon-2</title><path class="cls-1" d="M31.5,34.79,44.19,45.2v10a1.91,1.91,0,0,0,3.81,0V44.3a1.89,1.89,0,0,0-.69-1.47L34.88,32.64l6.08-21h1.39V27.9a1.89,1.89,0,0,0,1,1.68l10.75,5.7a1.87,1.87,0,0,0,1.78,0l10.75-5.7a1.89,1.89,0,0,0,1-1.68V11.64H69l6.08,21L62.69,42.83A1.89,1.89,0,0,0,62,44.3V55.2a1.91,1.91,0,0,0,3.81,0v-10L78.5,34.79a1.91,1.91,0,0,0,.63-2L72.3,9.2a1.91,1.91,0,0,0-1.83-1.37H65.75a1.9,1.9,0,0,0-1.9,1.9v17L55,31.44l-8.85-4.69v-17a1.9,1.9,0,0,0-1.9-1.9H39.53A1.91,1.91,0,0,0,37.7,9.2L30.87,32.79A1.91,1.91,0,0,0,31.5,34.79Z"/><path class="cls-1" d="M93.69,94.42l-6.77-2.21c-.08-.31-.16-.62-.25-.92L91.43,86a1.92,1.92,0,0,0,.23-2.23l-4-7a1.9,1.9,0,0,0-2-.91l-7,1.47c-.22-.23-.45-.45-.67-.67l1.47-7a1.92,1.92,0,0,0-.91-2l-7-4a1.89,1.89,0,0,0-2.22.23L64,68.59c-.31-.08-.61-.17-.92-.24l-2.21-6.77A1.91,1.91,0,0,0,59,60.27H51a1.91,1.91,0,0,0-1.81,1.31l-2.21,6.77c-.31.07-.61.16-.92.24l-5.3-4.75a1.89,1.89,0,0,0-2.22-.23l-7,4a1.92,1.92,0,0,0-.91,2l1.47,7c-.22.22-.45.44-.67.67l-7-1.47a1.9,1.9,0,0,0-2,.91l-4,7A1.92,1.92,0,0,0,18.57,86l4.76,5.3c-.09.3-.17.61-.25.91l-6.77,2.22A1.89,1.89,0,0,0,15,96.23v4a1.91,1.91,0,0,0,3.81,0V97.61l6.47-2.12a1.88,1.88,0,0,0,1.27-1.4c.2-.91.44-1.82.72-2.7a1.89,1.89,0,0,0-.39-1.85l-4.55-5.07L25,79.87l6.66,1.41a1.92,1.92,0,0,0,1.81-.59c.62-.68,1.28-1.35,2-2a1.9,1.9,0,0,0,.58-1.8L34.6,70.25l4.61-2.65,5.06,4.54a1.93,1.93,0,0,0,1.85.4c.88-.28,1.79-.52,2.7-.72a1.91,1.91,0,0,0,1.41-1.27l2.11-6.47h5.32l2.11,6.47a1.91,1.91,0,0,0,1.41,1.27q1.37.3,2.7.72a1.93,1.93,0,0,0,1.85-.4l5.06-4.54,4.61,2.65L74,76.92a1.9,1.9,0,0,0,.58,1.8c.69.63,1.35,1.29,2,2a1.91,1.91,0,0,0,1.8.59L85,79.87l2.66,4.6-4.55,5.07a1.89,1.89,0,0,0-.39,1.85c.28.88.52,1.79.72,2.7a1.88,1.88,0,0,0,1.27,1.4l6.47,2.12v2.66a1.91,1.91,0,0,0,3.81,0v-4A1.89,1.89,0,0,0,93.69,94.42Z"/><path class="cls-1" d="M55,90.41a9.86,9.86,0,0,0-9.85,9.86,1.91,1.91,0,0,0,3.81,0,6,6,0,1,1,12.08,0,1.91,1.91,0,0,0,3.81,0A9.86,9.86,0,0,0,55,90.41Z"/><path class="cls-1" d="M55,78.6a21.68,21.68,0,0,0-21.66,21.67,1.9,1.9,0,1,0,3.8,0,17.86,17.86,0,0,1,35.72,0,1.9,1.9,0,1,0,3.8,0A21.68,21.68,0,0,0,55,78.6Z"/><path class="cls-1" d="M53.27,46.11a1.91,1.91,0,1,0,0,3.81h3.46a1.91,1.91,0,1,0,0-3.81Z"/></svg>