<svg id="Layer_1" data-name="Layer 1" xmlns="http://www.w3.org/2000/svg" viewBox="0 0 110 110"><defs><style>.cls-1{fill:none;stroke:#282828;stroke-miterlimit:10;stroke-width:2px;}</style></defs><title>about-icon-3-05</title><path class="cls-1" d="M37.56,39.32A1.82,1.82,0,0,0,39,40a1.79,1.79,0,0,0,1.09-.37,1.81,1.81,0,0,0,.35-2.53c-.79-1-5.76-7.42-6.51-8.41A6.32,6.32,0,0,1,44,21.08a1.82,1.82,0,0,0,2.87,0,6.32,6.32,0,0,1,10,0,1.81,1.81,0,0,0,2.86,0,6.32,6.32,0,1,1,5,10.18H51.23a1.81,1.81,0,0,0,0,3.62H64.76a9.94,9.94,0,1,0-6.44-17.52,10,10,0,0,0-12.88,0A9.84,9.84,0,0,0,39,15a10,10,0,0,0-9.94,9.94,9.84,9.84,0,0,0,2,6C31.82,31.92,36.79,38.29,37.56,39.32Z"/><path class="cls-1" d="M93.19,60.69H59.34a1.81,1.81,0,0,0,0,3.62h32v6H68.14a1.81,1.81,0,1,0,0,3.62H91.38V91.38H80.6V85.23a1.81,1.81,0,1,0-3.62,0v6.15H61.91V83.16a1.81,1.81,0,0,0-1.81-1.81H56.89L49.51,45.8a1.8,1.8,0,0,0-1.77-1.44H29.17A1.8,1.8,0,0,0,27.4,45.8L20,81.35H16.81A1.81,1.81,0,0,0,15,83.16v10A1.81,1.81,0,0,0,16.81,95H93.19A1.81,1.81,0,0,0,95,93.19V62.5A1.81,1.81,0,0,0,93.19,60.69ZM30.64,48H46.27l2.64,12.71H43.42a1.81,1.81,0,0,0,0,3.62h6.24l1.24,6H43.42a1.81,1.81,0,0,0,0,3.62h8.23l1.54,7.42H23.72Zm-12,37H58.29v6.42H18.62Z"/></svg>