<svg id="Layer_1" data-name="Layer 1" xmlns="http://www.w3.org/2000/svg" viewBox="0 0 110 110"><defs><style>.cls-1{fill:none;stroke:#282828;stroke-miterlimit:10;stroke-width:2px;}</style></defs><title>about-icon-1</title><path class="cls-1" d="M39,44.73a17.62,17.62,0,0,0-14.23,0A1.83,1.83,0,1,0,26.4,48a9.63,9.63,0,0,1,1.83-.67,2.45,2.45,0,0,0,0,.27,3.67,3.67,0,0,0,7.33,0,2.45,2.45,0,0,0,0-.27,9.63,9.63,0,0,1,1.83.67A1.83,1.83,0,0,0,39,44.73Z"/><path class="cls-1" d="M50.66,48a9.28,9.28,0,0,1,1.82-.67,2.44,2.44,0,0,0,0,.27,3.66,3.66,0,1,0,7.32,0c0-.09,0-.18,0-.27A9.53,9.53,0,0,1,61.6,48a1.83,1.83,0,1,0,1.64-3.27,17.6,17.6,0,0,0-14.22,0A1.83,1.83,0,1,0,50.66,48Z"/><path class="cls-1" d="M93.91,71.93l-5.59-2.49c-.17-.47-.36-.93-.57-1.39l2.19-5.71a1.83,1.83,0,0,0-.41-2l-3-3a1.85,1.85,0,0,0-2-.41l-5.71,2.19q-.69-.32-1.38-.57L75,53A1.83,1.83,0,0,0,73.3,51.9H73v-25A16.49,16.49,0,0,0,56.53,10.44h-25A16.49,16.49,0,0,0,15,26.92V57.7A29,29,0,0,0,54,84.91L52.4,89.12a1.83,1.83,0,0,0,.42,1.95l3,3a1.83,1.83,0,0,0,2,.41l5.72-2.19q.68.31,1.38.57l2.49,5.59A1.83,1.83,0,0,0,69,99.56H73.3A1.83,1.83,0,0,0,75,98.47l2.49-5.59c.47-.17.93-.36,1.39-.57l5.71,2.19a1.83,1.83,0,0,0,2-.41l3-3a1.83,1.83,0,0,0,.41-1.95l-2.19-5.71c.21-.46.4-.92.57-1.39l5.59-2.49A1.83,1.83,0,0,0,95,77.86V73.6A1.83,1.83,0,0,0,93.91,71.93ZM31.48,14.1H56.53A12.83,12.83,0,0,1,69.34,26.92v8.21c-10.28-.3-16-5.4-16.1-5.44A1.83,1.83,0,0,0,50.17,31v4c-9.48-.4-12.9-5-13-5.24a1.83,1.83,0,0,0-3.34,1v4.16C24.68,34,19.51,25.53,18.9,24.47A12.84,12.84,0,0,1,31.48,14.1ZM18.66,57.7V30.39c3.15,3.66,8.71,8.29,16.7,8.29h.29a1.82,1.82,0,0,0,1.8-1.83v-2c2.77,1.88,7.41,3.89,14.58,3.79a1.83,1.83,0,0,0,1.81-1.83c0-.69,0-1.5,0-2.3a32.06,32.06,0,0,0,15.51,4.24V51.9H69A1.83,1.83,0,0,0,67.37,53l-2.49,5.59q-.7.26-1.38.57L57.78,57a1.83,1.83,0,0,0-2,.41l-3,3a1.83,1.83,0,0,0-.42,2l2.19,5.71c-.21.46-.4.92-.57,1.39l-5.59,2.49a1.83,1.83,0,0,0-1.09,1.67v4.26a1.83,1.83,0,0,0,1.09,1.67l4.34,1.94A25.33,25.33,0,0,1,18.66,57.7Zm72.68,19L86.11,79a1.88,1.88,0,0,0-1,1.13,14.28,14.28,0,0,1-1,2.34A1.87,1.87,0,0,0,84,84l2.06,5.35-1.33,1.34L79.41,88.6a1.87,1.87,0,0,0-1.5.09,15.21,15.21,0,0,1-2.34,1,1.9,1.9,0,0,0-1.13,1L72.11,95.9H70.23L67.9,90.66a1.85,1.85,0,0,0-1.12-1,14,14,0,0,1-2.35-1,1.87,1.87,0,0,0-1.5-.09l-5.35,2.06-1.33-1.34,2-5.35a1.79,1.79,0,0,0-.09-1.5,14.92,14.92,0,0,1-1-2.35,1.85,1.85,0,0,0-1-1.12L51,76.67V74.79l5.23-2.33a1.85,1.85,0,0,0,1-1.12,14.92,14.92,0,0,1,1-2.35,1.79,1.79,0,0,0,.09-1.5l-2-5.35,1.33-1.34,5.35,2.06a1.83,1.83,0,0,0,1.5-.09,14.92,14.92,0,0,1,2.35-1,1.82,1.82,0,0,0,1.12-1l2.33-5.24h1.88l2.33,5.24a1.86,1.86,0,0,0,1.13,1,15.21,15.21,0,0,1,2.34,1,1.83,1.83,0,0,0,1.5.09l5.36-2,1.33,1.33L84,67.49a1.87,1.87,0,0,0,.09,1.5,14.28,14.28,0,0,1,1,2.34,1.88,1.88,0,0,0,1,1.13l5.23,2.33Z"/><path class="cls-1" d="M71.17,66.48a9.25,9.25,0,1,0,9.25,9.25A9.26,9.26,0,0,0,71.17,66.48Zm0,14.84a5.59,5.59,0,1,1,5.59-5.59A5.6,5.6,0,0,1,71.17,81.32Z"/></svg>