<svg id="Layer_1" data-name="Layer 1" xmlns="http://www.w3.org/2000/svg" viewBox="0 0 320 74"><defs><style>.cls-1,.cls-5,.cls-6{fill:#ed1b24;}.cls-2{font-size:51.88px;fill:#282828;font-family:Montserrat-SemiBold, Montserrat;font-weight:600;letter-spacing:-0.05em;}.cls-3{letter-spacing:-0.05em;}.cls-4{letter-spacing:-0.04em;}.cls-5{letter-spacing:-0.04em;}.cls-6{letter-spacing:-0.04em;}</style></defs><title>Logo</title><path class="cls-1" d="M39,44.62A7.62,7.62,0,1,0,31.36,37h0v.15A7.63,7.63,0,0,0,39,44.62Z"/><path class="cls-1" d="M71.09,29.4l-.14,0L65.8,28.24a28.68,28.68,0,0,0-1.66-4L67,19.79a.75.75,0,0,0,.07-.12A33.19,33.19,0,0,0,56.31,8.91L56.18,9l-4.44,2.85a29.07,29.07,0,0,0-4-1.66L46.62,5s0-.09,0-.14a33.3,33.3,0,0,0-15.21,0s0,.1,0,.14l-1.12,5.16a29.07,29.07,0,0,0-4,1.66L21.77,9l-.12-.08A33.12,33.12,0,0,0,10.89,19.67l.07.12,2.86,4.44a27.53,27.53,0,0,0-1.66,4L7,29.36l-.14,0a33.26,33.26,0,0,0,0,15.2l.14,0,5.16,1.12a27.53,27.53,0,0,0,1.66,4L11,54.21l-.07.12A33.12,33.12,0,0,0,21.65,65.09h0V37a17.32,17.32,0,1,1,9.71,15.57V69.12a33.3,33.3,0,0,0,15.21,0c0-.05,0-.1,0-.14l1.12-5.16a29.07,29.07,0,0,0,4-1.66L56.18,65l.13.08A33.19,33.19,0,0,0,67.06,54.33a.75.75,0,0,0-.07-.12l-2.85-4.44a28.68,28.68,0,0,0,1.66-4L71,44.64l.14,0a32.89,32.89,0,0,0,0-15.2Z"/><text class="cls-2" transform="translate(88.26 54.23)">P<tspan class="cls-3" x="35.02" y="0">r</tspan><tspan class="cls-4" x="54.42" y="0">o</tspan><tspan class="cls-5" x="86.01" y="0">Me</tspan><tspan class="cls-6" x="164.09" y="0">c</tspan><tspan class="cls-5" x="192.1" y="0">h</tspan></text></svg>