<svg id="Layer_1" data-name="Layer 1" xmlns="http://www.w3.org/2000/svg" viewBox="0 0 320 74"><defs><style>.cls-1{fill:#ed1b24;}.cls-2{fill:#fff;}</style></defs><title>Logo-White</title><path class="cls-1" d="M39,44.62A7.62,7.62,0,1,0,31.36,37h0v.15A7.63,7.63,0,0,0,39,44.62Z"/><path class="cls-1" d="M71.09,29.4l-.14,0L65.8,28.24a28.68,28.68,0,0,0-1.66-4L67,19.79a.75.75,0,0,0,.07-.12A33.19,33.19,0,0,0,56.31,8.91L56.18,9l-4.44,2.85a29.07,29.07,0,0,0-4-1.66L46.62,5s0-.09,0-.14a33.3,33.3,0,0,0-15.21,0s0,.1,0,.14l-1.12,5.16a29.07,29.07,0,0,0-4,1.66L21.77,9l-.12-.08A33.12,33.12,0,0,0,10.89,19.67l.07.12,2.86,4.44a27.53,27.53,0,0,0-1.66,4L7,29.36l-.14,0a33.26,33.26,0,0,0,0,15.2l.14,0,5.16,1.12a27.53,27.53,0,0,0,1.66,4L11,54.21l-.07.12A33.12,33.12,0,0,0,21.65,65.09h0V37a17.32,17.32,0,1,1,9.71,15.57V69.12a33.3,33.3,0,0,0,15.21,0c0-.05,0-.1,0-.14l1.12-5.16a29.07,29.07,0,0,0,4-1.66L56.18,65l.13.08A33.19,33.19,0,0,0,67.06,54.33a.75.75,0,0,0-.07-.12l-2.85-4.44a28.68,28.68,0,0,0,1.66-4L71,44.64l.14,0a32.89,32.89,0,0,0,0-15.2Z"/><path class="cls-2" d="M116.3,19.47a12.06,12.06,0,0,1,5.37,4.46,12.54,12.54,0,0,1,1.86,6.9,12.59,12.59,0,0,1-1.86,6.88,11.91,11.91,0,0,1-5.37,4.48,20.11,20.11,0,0,1-8.23,1.56H99.88V54.23H93.13V17.92h14.94A20.28,20.28,0,0,1,116.3,19.47Zm-1.85,16.71a6.51,6.51,0,0,0,2.29-5.35,6.5,6.5,0,0,0-2.29-5.34c-1.52-1.24-3.75-1.87-6.69-1.87H99.88V38h7.88Q112.17,38,114.45,36.18Z"/><path class="cls-2" d="M143.56,26.22v6.17a8.73,8.73,0,0,0-1.51-.16,7.84,7.84,0,0,0-5.91,2.21A8.78,8.78,0,0,0,134,40.79V54.23h-6.48V26.53h6.17v4Q136.51,26.22,143.56,26.22Z"/><path class="cls-2" d="M151.81,52.78a13.23,13.23,0,0,1-5.27-5.06,14.3,14.3,0,0,1-1.89-7.34,14.21,14.21,0,0,1,1.89-7.32,13.3,13.3,0,0,1,5.27-5A16.86,16.86,0,0,1,167,28a13.34,13.34,0,0,1,5.26,5,14.21,14.21,0,0,1,1.9,7.32,14.31,14.31,0,0,1-1.9,7.34A13.27,13.27,0,0,1,167,52.78a16.86,16.86,0,0,1-15.2,0Zm13.48-6.12a8.59,8.59,0,0,0,2.34-6.28,8.59,8.59,0,0,0-2.34-6.28,8.5,8.5,0,0,0-11.8,0,8.66,8.66,0,0,0-2.31,6.28,8.66,8.66,0,0,0,2.31,6.28,8.5,8.5,0,0,0,11.8,0Z"/><path class="cls-1" d="M212.5,54.23l-.05-24.07L200.52,50.08h-3L185.58,30.47V54.23h-6.43V17.92h5.55L199.12,42l14.16-24.07h5.55l0,36.31Z"/><path class="cls-1" d="M252.14,42.45H230.4a7.49,7.49,0,0,0,3,4.85,9.74,9.74,0,0,0,6,1.79,10.13,10.13,0,0,0,7.53-3l3.47,4a11.65,11.65,0,0,1-4.72,3.37,18.74,18.74,0,0,1-14.47-.67,13.06,13.06,0,0,1-5.37-5.06,14.21,14.21,0,0,1-1.9-7.34,14.47,14.47,0,0,1,1.85-7.29A13,13,0,0,1,230.87,28a14.87,14.87,0,0,1,7.36-1.81A14.48,14.48,0,0,1,245.47,28a12.62,12.62,0,0,1,5,5,15.28,15.28,0,0,1,1.79,7.49C252.24,41,252.2,41.62,252.14,42.45ZM233,33.25a7.7,7.7,0,0,0-2.62,4.9h15.72a7.67,7.67,0,0,0-2.55-4.88,8.41,8.41,0,0,0-10.55,0Z"/><path class="cls-1" d="M261.58,52.78a13.32,13.32,0,0,1-5.35-5.06,14.13,14.13,0,0,1-1.92-7.34,14,14,0,0,1,1.92-7.32,13.43,13.43,0,0,1,5.32-5,16.22,16.22,0,0,1,7.76-1.81,14.9,14.9,0,0,1,7.18,1.66,10.65,10.65,0,0,1,4.64,4.77l-5,2.9a7.93,7.93,0,0,0-3-2.87,8.7,8.7,0,0,0-9.93,1.4,8.46,8.46,0,0,0-2.39,6.3,8.52,8.52,0,0,0,2.36,6.3,8.75,8.75,0,0,0,10,1.4,7.89,7.89,0,0,0,3-2.88l5,2.91a11.25,11.25,0,0,1-4.69,4.8,14.7,14.7,0,0,1-7.13,1.68A16.24,16.24,0,0,1,261.58,52.78Z"/><path class="cls-1" d="M308.73,29.28q3.16,3.06,3.17,9.08V54.23h-6.49v-15a7.81,7.81,0,0,0-1.71-5.48,6.36,6.36,0,0,0-4.88-1.84A7.5,7.5,0,0,0,293.17,34a8.62,8.62,0,0,0-2.08,6.2v14h-6.48V15.74h6.48v14a10.72,10.72,0,0,1,4-2.62,14.72,14.72,0,0,1,5.27-.9A11.57,11.57,0,0,1,308.73,29.28Z"/></svg>