<svg id="Layer_1" data-name="Layer 1" xmlns="http://www.w3.org/2000/svg" viewBox="0 0 1000 249.57"><defs><style>.cls-1,.cls-5,.cls-6{fill:#ed1b24;}.cls-2{font-size:159.43px;fill:#282828;letter-spacing:-0.05em;}.cls-2,.cls-7{font-family:Montserrat-SemiBold, Montserrat;font-weight:600;}.cls-3{letter-spacing:-0.05em;}.cls-4,.cls-5{letter-spacing:-0.04em;}.cls-6{letter-spacing:-0.04em;}.cls-7{font-size:23.39px;fill:#757272;letter-spacing:-0.02em;}.cls-8{letter-spacing:-0.01em;}.cls-9{letter-spacing:-0.01em;}.cls-10{letter-spacing:-0.01em;}.cls-11{letter-spacing:-0.03em;}.cls-12{letter-spacing:-0.02em;}</style></defs><title>Logo-Full</title><path class="cls-1" d="M128.08,148.19a23.41,23.41,0,1,0-23.41-23.41h0v.47A23.43,23.43,0,0,0,128.08,148.19Z"/><path class="cls-1" d="M226.78,101.41l-.43-.11-15.86-3.45a85,85,0,0,0-5.1-12.3l8.78-13.65c.08-.12.15-.25.22-.38a102.05,102.05,0,0,0-33.06-33l-.37.22-13.65,8.78A86.33,86.33,0,0,0,155,42.36l-3.44-15.85a3.45,3.45,0,0,0-.12-.43,102.08,102.08,0,0,0-46.73,0,3.45,3.45,0,0,0-.12.43l-3.44,15.85a86.33,86.33,0,0,0-12.31,5.11L75.19,38.69l-.37-.22A102.05,102.05,0,0,0,41.76,71.52c.07.13.14.26.22.38l8.78,13.65a85,85,0,0,0-5.1,12.3L29.8,101.3l-.43.11a102.12,102.12,0,0,0,0,46.74l.43.12,15.86,3.44a84.56,84.56,0,0,0,5.1,12.3L42,177.66l-.22.38A102,102,0,0,0,74.82,211.1h0V125.72c0-.31,0-.62,0-.94a53.24,53.24,0,1,1,29.86,47.85v50.76l0,.1a102.08,102.08,0,0,0,46.73,0,3.6,3.6,0,0,0,.12-.44L155,207.2a86.28,86.28,0,0,0,12.31-5.1L181,210.88l.37.22A102,102,0,0,0,214.39,178l-.22-.38L205.39,164a84.56,84.56,0,0,0,5.1-12.3l15.86-3.44.43-.12a102.12,102.12,0,0,0,0-46.74Z"/><text class="cls-2" transform="translate(279.52 167.92)">P<tspan class="cls-3" x="107.61" y="0">r</tspan><tspan class="cls-4" x="167.24" y="0">o</tspan><tspan class="cls-5" x="264.33" y="0">Me</tspan><tspan class="cls-6" x="504.26" y="0">c</tspan><tspan class="cls-5" x="590.35" y="0">h</tspan></text><text class="cls-7" transform="translate(292.81 211.07)">P<tspan class="cls-8" x="16.51" y="0" xml:space="preserve">ROFESSIONAL  M</tspan><tspan class="cls-9" x="222.88" y="0">E</tspan><tspan class="cls-10" x="238.24" y="0">CHANI</tspan><tspan class="cls-11" x="316.94" y="0">C</tspan><tspan class="cls-8" x="333.36" y="0" xml:space="preserve">AL  ENGINEERING  SER</tspan><tspan class="cls-12" x="605.46" y="0">V</tspan><tspan class="cls-10" x="621.93" y="0">ICES</tspan></text></svg>