<svg id="Layer_1" data-name="Layer 1" xmlns="http://www.w3.org/2000/svg" viewBox="0 0 150.91 150.91"><defs><style>.cls-1{fill:#ed1b24;}</style></defs><title>LogoMark</title><path class="cls-1" d="M75.46,92.87A17.42,17.42,0,1,0,58,75.46h0v.34A17.43,17.43,0,0,0,75.46,92.87Z"/><path class="cls-1" d="M148.9,58.07l-.32-.09-11.8-2.56A64.59,64.59,0,0,0,133,46.27l6.52-10.16.17-.28a75.86,75.86,0,0,0-24.6-24.59l-.28.16-10.15,6.53a64.76,64.76,0,0,0-9.16-3.8L92.93,2.34A3,3,0,0,0,92.85,2,75.86,75.86,0,0,0,58.07,2L58,2.34,55.42,14.13a64.64,64.64,0,0,0-9.15,3.8L36.11,11.4l-.28-.16A75.82,75.82,0,0,0,11.24,35.83c0,.09.1.19.16.28l6.53,10.16a64.64,64.64,0,0,0-3.8,9.15L2.34,58,2,58.07A75.86,75.86,0,0,0,2,92.85l.32.08,11.79,2.56a64.76,64.76,0,0,0,3.8,9.16L11.4,114.8l-.16.28a75.86,75.86,0,0,0,24.59,24.6h0V76.15c0-.23,0-.46,0-.69a39.61,39.61,0,1,1,22.22,35.6v37.77a.64.64,0,0,1,0,.07,76.23,76.23,0,0,0,34.78,0c0-.11.06-.22.08-.32l2.56-11.8a64.71,64.71,0,0,0,9.16-3.79l10.15,6.52.28.17a75.89,75.89,0,0,0,24.6-24.6l-.17-.28L133,104.65a64.71,64.71,0,0,0,3.79-9.16l11.8-2.56.32-.08a76.23,76.23,0,0,0,0-34.78Z"/></svg>